<?xml version="1.0" encoding="utf-8"?>
<svg xmlns="http://www.w3.org/2000/svg" width="120.0" height="69.28203230275508" viewBox="0 0 120.0 69.28203230275508" shape-rendering="geometricPrecision">
  <defs>
    <clipPath id="tile-clip">
      <rect x="0" y="0" width="120.0" height="69.28203230275508" />
    </clipPath>
  </defs>
  <rect width="100%" height="100%" fill="#0b0b0b" />
  <g clip-path="url(#tile-clip)">
    <polygon points="-40.0000,-103.9230 -60.0000,-69.2820 -100.0000,-69.2820 -120.0000,-103.9230 -100.0000,-138.5641 -60.0000,-138.5641" fill="none" stroke="#d4af37" stroke-width="0.8" stroke-linejoin="miter" /><polygon points="-40.0000,-34.6410 -60.0000,0.0000 -100.0000,0.0000 -120.0000,-34.6410 -100.0000,-69.2820 -60.0000,-69.2820" fill="none" stroke="#d4af37" stroke-width="0.8" stroke-linejoin="miter" /><polygon points="-40.0000,34.6410 -60.0000,69.2820 -100.0000,69.2820 -120.0000,34.6410 -100.0000,0.0000 -60.0000,0.0000" fill="none" stroke="#d4af37" stroke-width="0.8" stroke-linejoin="miter" /><polygon points="-40.0000,103.9230 -60.0000,138.5641 -100.0000,138.5641 -120.0000,103.9230 -100.0000,69.2820 -60.0000,69.2820" fill="none" stroke="#d4af37" stroke-width="0.8" stroke-linejoin="miter" /><polygon points="-40.0000,173.2051 -60.0000,207.8461 -100.0000,207.8461 -120.0000,173.2051 -100.0000,138.5641 -60.0000,138.5641" fill="none" stroke="#d4af37" stroke-width="0.8" stroke-linejoin="miter" /><polygon points="-40.0000,242.4871 -60.0000,277.1281 -100.0000,277.1281 -120.0000,242.4871 -100.0000,207.8461 -60.0000,207.8461" fill="none" stroke="#d4af37" stroke-width="0.8" stroke-linejoin="miter" /><polygon points="20.0000,-69.2820 0.0000,-34.6410 -40.0000,-34.6410 -60.0000,-69.2820 -40.0000,-103.9230 0.0000,-103.9230" fill="none" stroke="#d4af37" stroke-width="0.8" stroke-linejoin="miter" /><polygon points="20.0000,0.0000 0.0000,34.6410 -40.0000,34.6410 -60.0000,0.0000 -40.0000,-34.6410 0.0000,-34.6410" fill="none" stroke="#d4af37" stroke-width="0.8" stroke-linejoin="miter" /><polygon points="20.0000,69.2820 0.0000,103.9230 -40.0000,103.9230 -60.0000,69.2820 -40.0000,34.6410 0.0000,34.6410" fill="none" stroke="#d4af37" stroke-width="0.8" stroke-linejoin="miter" /><polygon points="20.0000,138.5641 0.0000,173.2051 -40.0000,173.2051 -60.0000,138.5641 -40.0000,103.9230 0.0000,103.9230" fill="none" stroke="#d4af37" stroke-width="0.8" stroke-linejoin="miter" /><polygon points="20.0000,207.8461 0.0000,242.4871 -40.0000,242.4871 -60.0000,207.8461 -40.0000,173.2051 0.0000,173.2051" fill="none" stroke="#d4af37" stroke-width="0.8" stroke-linejoin="miter" /><polygon points="20.0000,277.1281 0.0000,311.7691 -40.0000,311.7691 -60.0000,277.1281 -40.0000,242.4871 0.0000,242.4871" fill="none" stroke="#d4af37" stroke-width="0.8" stroke-linejoin="miter" /><polygon points="80.0000,-103.9230 60.0000,-69.2820 20.0000,-69.2820 0.0000,-103.9230 20.0000,-138.5641 60.0000,-138.5641" fill="none" stroke="#d4af37" stroke-width="0.8" stroke-linejoin="miter" /><polygon points="80.0000,-34.6410 60.0000,0.0000 20.0000,0.0000 0.0000,-34.6410 20.0000,-69.2820 60.0000,-69.2820" fill="none" stroke="#d4af37" stroke-width="0.8" stroke-linejoin="miter" /><polygon points="80.0000,34.6410 60.0000,69.2820 20.0000,69.2820 0.0000,34.6410 20.0000,0.0000 60.0000,0.0000" fill="none" stroke="#d4af37" stroke-width="0.8" stroke-linejoin="miter" /><polygon points="80.0000,103.9230 60.0000,138.5641 20.0000,138.5641 0.0000,103.9230 20.0000,69.2820 60.0000,69.2820" fill="none" stroke="#d4af37" stroke-width="0.8" stroke-linejoin="miter" /><polygon points="80.0000,173.2051 60.0000,207.8461 20.0000,207.8461 0.0000,173.2051 20.0000,138.5641 60.0000,138.5641" fill="none" stroke="#d4af37" stroke-width="0.8" stroke-linejoin="miter" /><polygon points="80.0000,242.4871 60.0000,277.1281 20.0000,277.1281 0.0000,242.4871 20.0000,207.8461 60.0000,207.8461" fill="none" stroke="#d4af37" stroke-width="0.8" stroke-linejoin="miter" /><polygon points="140.0000,-69.2820 120.0000,-34.6410 80.0000,-34.6410 60.0000,-69.2820 80.0000,-103.9230 120.0000,-103.9230" fill="none" stroke="#d4af37" stroke-width="0.8" stroke-linejoin="miter" /><polygon points="140.0000,0.0000 120.0000,34.6410 80.0000,34.6410 60.0000,0.0000 80.0000,-34.6410 120.0000,-34.6410" fill="none" stroke="#d4af37" stroke-width="0.8" stroke-linejoin="miter" /><polygon points="140.0000,69.2820 120.0000,103.9230 80.0000,103.9230 60.0000,69.2820 80.0000,34.6410 120.0000,34.6410" fill="none" stroke="#d4af37" stroke-width="0.8" stroke-linejoin="miter" /><polygon points="140.0000,138.5641 120.0000,173.2051 80.0000,173.2051 60.0000,138.5641 80.0000,103.9230 120.0000,103.9230" fill="none" stroke="#d4af37" stroke-width="0.8" stroke-linejoin="miter" /><polygon points="140.0000,207.8461 120.0000,242.4871 80.0000,242.4871 60.0000,207.8461 80.0000,173.2051 120.0000,173.2051" fill="none" stroke="#d4af37" stroke-width="0.8" stroke-linejoin="miter" /><polygon points="140.0000,277.1281 120.0000,311.7691 80.0000,311.7691 60.0000,277.1281 80.0000,242.4871 120.0000,242.4871" fill="none" stroke="#d4af37" stroke-width="0.8" stroke-linejoin="miter" /><polygon points="200.0000,-103.9230 180.0000,-69.2820 140.0000,-69.2820 120.0000,-103.9230 140.0000,-138.5641 180.0000,-138.5641" fill="none" stroke="#d4af37" stroke-width="0.8" stroke-linejoin="miter" /><polygon points="200.0000,-34.6410 180.0000,0.0000 140.0000,0.0000 120.0000,-34.6410 140.0000,-69.2820 180.0000,-69.2820" fill="none" stroke="#d4af37" stroke-width="0.8" stroke-linejoin="miter" /><polygon points="200.0000,34.6410 180.0000,69.2820 140.0000,69.2820 120.0000,34.6410 140.0000,0.0000 180.0000,0.0000" fill="none" stroke="#d4af37" stroke-width="0.8" stroke-linejoin="miter" /><polygon points="200.0000,103.9230 180.0000,138.5641 140.0000,138.5641 120.0000,103.9230 140.0000,69.2820 180.0000,69.2820" fill="none" stroke="#d4af37" stroke-width="0.8" stroke-linejoin="miter" /><polygon points="200.0000,173.2051 180.0000,207.8461 140.0000,207.8461 120.0000,173.2051 140.0000,138.5641 180.0000,138.5641" fill="none" stroke="#d4af37" stroke-width="0.8" stroke-linejoin="miter" /><polygon points="200.0000,242.4871 180.0000,277.1281 140.0000,277.1281 120.0000,242.4871 140.0000,207.8461 180.0000,207.8461" fill="none" stroke="#d4af37" stroke-width="0.8" stroke-linejoin="miter" /><polygon points="260.0000,-69.2820 240.0000,-34.6410 200.0000,-34.6410 180.0000,-69.2820 200.0000,-103.9230 240.0000,-103.9230" fill="none" stroke="#d4af37" stroke-width="0.8" stroke-linejoin="miter" /><polygon points="260.0000,0.0000 240.0000,34.6410 200.0000,34.6410 180.0000,0.0000 200.0000,-34.6410 240.0000,-34.6410" fill="none" stroke="#d4af37" stroke-width="0.8" stroke-linejoin="miter" /><polygon points="260.0000,69.2820 240.0000,103.9230 200.0000,103.9230 180.0000,69.2820 200.0000,34.6410 240.0000,34.6410" fill="none" stroke="#d4af37" stroke-width="0.8" stroke-linejoin="miter" /><polygon points="260.0000,138.5641 240.0000,173.2051 200.0000,173.2051 180.0000,138.5641 200.0000,103.9230 240.0000,103.9230" fill="none" stroke="#d4af37" stroke-width="0.8" stroke-linejoin="miter" /><polygon points="260.0000,207.8461 240.0000,242.4871 200.0000,242.4871 180.0000,207.8461 200.0000,173.2051 240.0000,173.2051" fill="none" stroke="#d4af37" stroke-width="0.8" stroke-linejoin="miter" /><polygon points="260.0000,277.1281 240.0000,311.7691 200.0000,311.7691 180.0000,277.1281 200.0000,242.4871 240.0000,242.4871" fill="none" stroke="#d4af37" stroke-width="0.8" stroke-linejoin="miter" /><polygon points="320.0000,-103.9230 300.0000,-69.2820 260.0000,-69.2820 240.0000,-103.9230 260.0000,-138.5641 300.0000,-138.5641" fill="none" stroke="#d4af37" stroke-width="0.8" stroke-linejoin="miter" /><polygon points="320.0000,-34.6410 300.0000,0.0000 260.0000,0.0000 240.0000,-34.6410 260.0000,-69.2820 300.0000,-69.2820" fill="none" stroke="#d4af37" stroke-width="0.8" stroke-linejoin="miter" /><polygon points="320.0000,34.6410 300.0000,69.2820 260.0000,69.2820 240.0000,34.6410 260.0000,0.0000 300.0000,0.0000" fill="none" stroke="#d4af37" stroke-width="0.8" stroke-linejoin="miter" /><polygon points="320.0000,103.9230 300.0000,138.5641 260.0000,138.5641 240.0000,103.9230 260.0000,69.2820 300.0000,69.2820" fill="none" stroke="#d4af37" stroke-width="0.8" stroke-linejoin="miter" /><polygon points="320.0000,173.2051 300.0000,207.8461 260.0000,207.8461 240.0000,173.2051 260.0000,138.5641 300.0000,138.5641" fill="none" stroke="#d4af37" stroke-width="0.8" stroke-linejoin="miter" /><polygon points="320.0000,242.4871 300.0000,277.1281 260.0000,277.1281 240.0000,242.4871 260.0000,207.8461 300.0000,207.8461" fill="none" stroke="#d4af37" stroke-width="0.8" stroke-linejoin="miter" /><polygon points="380.0000,-69.2820 360.0000,-34.6410 320.0000,-34.6410 300.0000,-69.2820 320.0000,-103.9230 360.0000,-103.9230" fill="none" stroke="#d4af37" stroke-width="0.8" stroke-linejoin="miter" /><polygon points="380.0000,0.0000 360.0000,34.6410 320.0000,34.6410 300.0000,0.0000 320.0000,-34.6410 360.0000,-34.6410" fill="none" stroke="#d4af37" stroke-width="0.8" stroke-linejoin="miter" /><polygon points="380.0000,69.2820 360.0000,103.9230 320.0000,103.9230 300.0000,69.2820 320.0000,34.6410 360.0000,34.6410" fill="none" stroke="#d4af37" stroke-width="0.8" stroke-linejoin="miter" /><polygon points="380.0000,138.5641 360.0000,173.2051 320.0000,173.2051 300.0000,138.5641 320.0000,103.9230 360.0000,103.9230" fill="none" stroke="#d4af37" stroke-width="0.8" stroke-linejoin="miter" /><polygon points="380.0000,207.8461 360.0000,242.4871 320.0000,242.4871 300.0000,207.8461 320.0000,173.2051 360.0000,173.2051" fill="none" stroke="#d4af37" stroke-width="0.8" stroke-linejoin="miter" /><polygon points="380.0000,277.1281 360.0000,311.7691 320.0000,311.7691 300.0000,277.1281 320.0000,242.4871 360.0000,242.4871" fill="none" stroke="#d4af37" stroke-width="0.8" stroke-linejoin="miter" />
  </g>
</svg>
